<svg xmlns="http://www.w3.org/2000/svg" viewBox="0 0 1001 1001"><defs><style>.cls-1{fill:#15e5bd;stroke:#000;stroke-miterlimit:10;}.cls-2{fill:#fff;}</style></defs><g id="图层_2" data-name="图层 2"><circle class="cls-1" cx="500.5" cy="500.5" r="500"/><polygon class="cls-2" points="501 164.82 639.84 91.83 613.32 246.42 725.64 355.91 570.42 378.46 501 519.12 431.58 378.46 276.36 355.91 388.68 246.42 362.16 91.83 501 164.82"/><polygon class="cls-2" points="501.01 818.11 530.4 802.66 524.79 835.38 548.56 858.56 515.7 863.34 501.01 893.11 486.31 863.34 453.46 858.56 477.23 835.38 471.62 802.66 501.01 818.11"/><polygon class="cls-2" points="500.5 571.45 581.72 528.75 566.21 619.19 631.91 683.24 541.11 696.43 500.5 778.71 459.89 696.43 369.09 683.24 434.79 619.19 419.28 528.75 500.5 571.45"/></g></svg>